<?xml version="1.0" encoding="UTF-8" standalone="no"?>
<!DOCTYPE svg PUBLIC "-//W3C//DTD SVG 1.1//EN" "http://www.w3.org/Graphics/SVG/1.1/DTD/svg11.dtd">
<svg width="100%" height="100%" viewBox="0 0 2363 2363" version="1.1" xmlns="http://www.w3.org/2000/svg" xmlns:xlink="http://www.w3.org/1999/xlink" xml:space="preserve" xmlns:serif="http://www.serif.com/" style="fill-rule:evenodd;clip-rule:evenodd;stroke-linejoin:round;stroke-miterlimit:2;">
    <g transform="matrix(1,0,0,1,-9212,-5669)">
        <g id="icon-white" transform="matrix(0.555556,0,0,0.757508,9015.75,6331.58)">
            <rect x="354.331" y="-874.294" width="4251.97" height="3118.39" style="fill:none;"/>
            <g transform="matrix(2.2368,0,0,1.64046,-253.764,-1326.69)">
                <path d="M1222.32,370.817C1694.43,370.817 2077.73,754.115 2077.73,1226.23C2077.73,1698.35 1694.43,2081.64 1222.32,2081.64C750.204,2081.64 366.906,1698.35 366.906,1226.23C366.906,754.115 750.204,370.817 1222.32,370.817ZM1222.32,465.863C802.661,465.863 461.952,806.572 461.952,1226.23C461.952,1645.89 802.661,1986.6 1222.32,1986.6C1641.98,1986.6 1982.69,1645.89 1982.69,1226.23C1982.69,806.572 1641.98,465.863 1222.32,465.863ZM1070.38,1062.81C1089.72,1083.91 1086.62,1119.66 1064.73,1137.93C1037.71,1160.5 997.803,1157.02 983.154,1123.35C972.061,1097.85 982.627,1070.47 1002.93,1057.1C1023.45,1043.58 1053.85,1044.3 1070.38,1062.81ZM1215.59,1041.03L1240.93,1043.87C1240.93,1043.87 1237.26,1068.25 1232.84,1086.02C1218.17,1144.94 1156.91,1219.38 1103.01,1248.26C1096.66,1251.66 1074.99,1259.21 1074.99,1259.21L1068.15,1238.97C1068.15,1238.97 1083.97,1233.89 1094.44,1227.46C1148.28,1194.4 1200.55,1130.91 1211.51,1066.84C1212.5,1061.1 1215.59,1041.03 1215.59,1041.03ZM1416.49,1245.76C1416.49,1245.76 1407.38,1240.23 1408.95,1231.47C1412.4,1212.26 1417.65,1187.73 1417.15,1168.09C1416.89,1158.25 1429.08,1161.16 1429.08,1161.16C1431.02,1180.21 1425.88,1218.05 1416.49,1245.76ZM896.264,1105.11C911.445,1095.38 925.679,1100.6 930.248,1111.78C935.18,1123.85 929.33,1140.99 912.477,1140.67C893.168,1140.3 884.303,1122.72 896.264,1105.11ZM1408.64,1269.29C1399.69,1299.59 1382.44,1326.78 1358.43,1346.15C1350.37,1338.12 1352.72,1331.34 1358.99,1325.58C1377.09,1308.96 1383.83,1298.12 1392.97,1274.43C1395.76,1267.2 1403.14,1266.44 1408.64,1269.29ZM972.098,930.395C984.675,942.957 976.375,964.37 961.619,980.634C945.848,998.015 922.704,1009.51 909.788,998.046C895.857,985.675 905.611,960.951 922.047,943.557C937.539,927.162 958.969,917.279 972.098,930.395ZM1601.61,1783.8C1590.16,1771.22 1571.36,1766.18 1548.09,1765.61C1548.09,1765.61 1408.21,1461.78 1408.62,1459.41C1440.4,1457.37 1483.02,1442.42 1507.5,1412.96C1507.5,1412.96 1514.03,1417.57 1519.71,1418.84C1512.92,1434.58 1509.06,1447.34 1525.35,1458.87C1548.06,1474.93 1567.88,1459.39 1585.95,1431.64C1602.03,1443.62 1615.69,1430.61 1619.68,1422.91C1625.83,1411.02 1625.46,1395.73 1612.29,1385.86C1620.47,1367.73 1632.39,1349.21 1613.74,1334.45C1597.18,1321.34 1583.15,1318.79 1568.88,1335.51C1561.52,1330.98 1553.75,1325.11 1553.75,1325.11C1572.92,1283.63 1561.12,1237.94 1547.22,1206.53C1527.04,1160.94 1471.7,1112.54 1426.04,1111.52C1426.04,1111.52 1427.93,1126.23 1427.83,1134.71C1409.25,1132.79 1417.05,1109.92 1405.4,1100.56C1391.47,1089.37 1367.05,1072.81 1344.56,1055.66L1367.99,1007.48C1393.15,1019.8 1402.13,1012.77 1409.51,998.945C1415.08,988.505 1410.75,977.588 1389.71,965.433C1381.26,960.545 1386.75,950.574 1389.61,944.75L1404.7,951.31C1420.53,958.967 1434.07,932.827 1419.32,925.413L1373.23,901.629C1356.16,894.846 1346.51,916.191 1359.78,925.053L1372.01,933.061C1368.55,944.839 1363.06,950.647 1355.59,946.953C1339.65,939.083 1325.78,929.094 1313.89,945.856C1299.71,965.85 1311.57,974.686 1333.86,985.205L1308.2,1036.44C1285.4,1022.77 1272.95,1011.64 1242.24,1002.71C1235.63,1000.79 1214.32,1001.25 1214.32,1001.25C1214.32,1001.25 1212.24,999.198 1210.94,993.811C1209.5,987.803 1200.12,967.163 1196.18,959.448C1179.31,926.407 1145.42,893.743 1111.74,878.277C1120.2,856.777 1118.55,842.977 1095.41,833.701C1066.19,821.98 1052.75,825.434 1041.14,857.011C999.928,849.889 952.095,865.216 917.508,888.177C910.413,892.889 877.48,920.868 877.48,920.868C862.764,914.939 844.203,909.558 828.681,935.589C813.082,961.749 823.374,980.064 840.392,987.395C816.869,1060.2 840.1,1138.33 894.825,1190.3C899.434,1194.68 918.47,1209.54 918.47,1209.54C912.499,1217.45 905.161,1245.67 940.145,1261.07C973.769,1275.86 985.883,1250.96 990.132,1239.59L1026.27,1243.64C1025.1,1256.41 1034.52,1272.33 1041.58,1282.8C1050.75,1296.37 1057.98,1307.85 1072.35,1315.85C1082.06,1321.25 1117.13,1340.15 1117.13,1340.15L912.121,1765.44C882.47,1765.4 867.309,1775.91 859.826,1790.54L853.108,1790.54C774.324,1738.86 706.993,1671.13 655.778,1592.02C720.243,1624.31 802.212,1651.1 896.071,1670.04L921.435,1617.42C820.948,1598.33 734.208,1569.9 668.64,1534.84C638.004,1518.46 611.987,1491.91 592.042,1466.48C583.433,1443.93 575.999,1420.81 569.816,1397.18C555.53,1342.58 547.923,1285.29 547.923,1226.23C547.923,854.021 850.11,551.834 1222.32,551.834C1594.53,551.834 1896.72,854.021 1896.72,1226.23C1896.72,1285.29 1889.11,1342.58 1874.82,1397.18C1868.64,1420.81 1861.21,1443.93 1852.6,1466.48C1832.65,1491.91 1806.63,1518.46 1776,1534.84C1714.11,1567.93 1633.37,1595.12 1540,1614.12C1548.44,1632.54 1556.67,1650.47 1564.17,1666.8C1651.52,1648.09 1727.99,1622.5 1788.86,1592.02C1739.84,1667.74 1676.06,1733.03 1601.61,1783.8ZM711.024,1049.12C709.566,1049.25 707.586,1050.4 706.479,1051.4C697.656,1059.41 697.996,1097.45 686.527,1109.58C675.168,1121.59 638.743,1123.73 633.686,1131.37C630.164,1136.69 631.019,1140.64 636.503,1143.82C651.647,1152.6 685.307,1150.96 693.052,1170.59C696.815,1180.13 701.51,1216.4 707.111,1220.75C711.623,1224.25 716.175,1223.01 718.952,1218.38C731.257,1197.92 722.269,1167.75 750.343,1156.04C760.102,1151.97 798.314,1147.79 790.612,1132.05C786.885,1124.44 749.696,1121.96 738.444,1109.58C727.278,1097.29 726.807,1058.98 716.756,1051.39C715.127,1050.16 713.158,1048.93 711.024,1049.12ZM1801.33,1283.07C1789.72,1271.91 1789.18,1230.66 1780.88,1224.48C1774.18,1219.48 1770.8,1226.5 1768.7,1231.6C1763.37,1244.51 1760.59,1268.13 1753.07,1278.52C1742.31,1293.39 1701.36,1294.83 1698.61,1303.98C1694.27,1318.4 1727.7,1321 1737.7,1324.99C1768.99,1337.48 1755.76,1371.29 1774.19,1392.78C1776.23,1393.48 1778.02,1393.13 1779.92,1392.19C1791.18,1386.6 1786.72,1337.8 1808.46,1326.96C1817.5,1322.46 1853.34,1317.37 1854.28,1306.72C1854.49,1304.36 1854.41,1303.72 1852.97,1301.78C1847.51,1294.4 1811.51,1292.85 1801.33,1283.07ZM1465.53,887.424C1469.6,891.483 1475.93,889.894 1478.78,885.017C1487.26,870.527 1484.63,838.211 1499.76,824.412C1512.25,813.02 1554.87,814.84 1555.05,798.103C1555.14,788.922 1518.82,784.428 1510.29,781.052C1481.25,769.558 1489.94,737.575 1478.63,715.512C1475.34,709.104 1468.3,709.279 1463.37,713.806C1457.75,730.331 1456.52,761.922 1444.36,774.217C1432.41,786.299 1393.95,786.923 1389.6,794.092C1387.96,796.792 1388.24,801.687 1389.61,804.537C1393.76,813.13 1437.51,816.433 1447.78,827.941C1459.99,841.606 1459.26,881.166 1465.53,887.424ZM1629.56,1079.83C1623.91,1074.15 1623.65,1053.12 1619.61,1049.97C1616.35,1047.42 1614.7,1051 1613.68,1053.6C1611.09,1060.18 1609.74,1072.22 1606.08,1077.51C1600.85,1085.09 1580.92,1085.82 1579.59,1090.48C1577.47,1097.84 1593.74,1099.16 1598.6,1101.2C1613.82,1107.56 1607.39,1124.79 1616.35,1135.74C1617.35,1136.1 1618.22,1135.92 1619.14,1135.44C1624.62,1132.59 1622.45,1107.72 1633.03,1102.2C1637.42,1099.9 1654.86,1097.31 1655.32,1091.88C1655.42,1090.68 1655.38,1090.36 1654.68,1089.37C1652.03,1085.6 1634.51,1084.82 1629.56,1079.83ZM1082.31,644.954C1080.79,643.489 1077.38,642.496 1075.31,643.007C1064.34,645.733 1059.63,688.128 1050.68,696.597C1042.07,704.744 1004.04,709.757 1002.87,720.045C1001.13,735.441 1040.79,736.307 1050.72,746.814C1060.75,757.413 1064.69,793.59 1071.13,798.435C1073.92,800.536 1080.54,801.091 1082.88,797.781C1090.09,787.533 1088.93,758.056 1099.15,746.811C1109.15,735.814 1148.86,736.435 1148.89,721.729C1148.91,710.378 1117.32,706.757 1107.86,701.829C1087.23,691.08 1092.71,655.002 1082.31,644.954ZM895.658,1354.48C894.645,1354.57 893.268,1355.42 892.499,1356.15C886.366,1362.02 886.603,1389.87 878.632,1398.75C870.737,1407.54 845.419,1409.11 841.905,1414.7C839.457,1418.6 840.051,1421.49 843.863,1423.82C854.388,1430.25 877.783,1429.05 883.167,1443.42C885.782,1450.41 889.045,1476.96 892.938,1480.14C896.074,1482.71 899.238,1481.8 901.168,1478.41C909.721,1463.43 903.474,1441.34 922.987,1432.76C929.769,1429.78 956.328,1426.73 950.975,1415.2C948.385,1409.63 922.537,1407.81 914.716,1398.75C906.956,1389.75 906.628,1361.7 899.642,1356.14C898.51,1355.24 897.141,1354.34 895.658,1354.48ZM1385.26,1790.54L1062.26,1790.54C1053.99,1773.88 1035.2,1766.38 1000.04,1765.84C1000.04,1765.84 1116.65,1494.22 1165.13,1365.42C1196.5,1380.72 1227.87,1395 1258.97,1404L1259.11,1412.4L1239.89,1415.59C1256.88,1442.29 1283.45,1463.87 1316.77,1461.53C1318.25,1460.13 1269.91,1338.97 1265.43,1328.08C1262.46,1320.87 1277.69,1314.8 1280.45,1322.7L1447.86,1765.98C1418.49,1766.08 1395.77,1771.41 1385.26,1790.54ZM1361.57,1695.66L1340.69,1640.39C1302.23,1642.98 1262.68,1644.33 1222.32,1644.33C1185.34,1644.33 1149.04,1643.2 1113.64,1641.01C1105.42,1660.59 1097.58,1679.22 1090.39,1696.22C1133.16,1699.37 1177.26,1701.02 1222.32,1701.02C1269.96,1701.02 1316.52,1699.18 1361.57,1695.66ZM1131.71,943.754C1155.86,954.255 1167.63,983.269 1157.1,1000.24C1143.5,1022.18 1123.68,1026.16 1102.46,1015.37C1088.14,1008.09 1074.68,989.806 1075.8,973.367C1077.49,948.512 1107.12,933.061 1131.71,943.754ZM1301.66,1218.96C1313.97,1215.92 1329.41,1225.19 1332.77,1238.79C1336.69,1254.74 1322.32,1271.04 1309.6,1272.72C1295.23,1274.63 1282.76,1264.98 1280.25,1250.63C1277.56,1235.26 1282.6,1223.66 1301.66,1218.96Z" style="fill:rgb(250,250,249);"/>
            </g>
        </g>
    </g>
</svg>
