<?xml version="1.0" encoding="UTF-8" standalone="no"?>
<!DOCTYPE svg PUBLIC "-//W3C//DTD SVG 1.1//EN" "http://www.w3.org/Graphics/SVG/1.1/DTD/svg11.dtd">
<svg width="100%" height="100%" viewBox="0 0 4489 2363" version="1.1" xmlns="http://www.w3.org/2000/svg" xmlns:xlink="http://www.w3.org/1999/xlink" xml:space="preserve" xmlns:serif="http://www.serif.com/" style="fill-rule:evenodd;clip-rule:evenodd;stroke-linejoin:round;stroke-miterlimit:2;">
    <g transform="matrix(1,0,0,1,-4606,0)">
        <g id="key-dark" transform="matrix(1.05556,0,0,0.757508,4232.28,662.285)">
            <rect x="354.331" y="-874.294" width="4251.97" height="3118.39" style="fill:none;"/>
            <g transform="matrix(1.08271,0,0,1.58349,-364.987,-1247.96)">
                <path d="M2612.1,1384.26C2531.43,1795.31 2152.52,2106.82 1697.84,2106.82C1184.49,2106.82 767.717,1709.74 767.717,1220.63C767.717,731.532 1184.49,334.444 1697.84,334.444C2062.73,334.444 2378.83,535.075 2531.13,826.772L4074.8,826.772C4302.96,826.772 4488.19,1003.25 4488.19,1220.63C4488.19,1262.11 4481.44,1302.1 4468.95,1339.66L4433.93,1339.66L4428.02,1345.67C4424.63,1348.98 4421.98,1351.29 4421.98,1350.99C4421.98,1350.59 4419.86,1352.19 4417.22,1354.6L4412.35,1358.91L4411.92,1422.88L4380.69,1423.48L4380.48,1402.63L4380.16,1381.77L4367.14,1381.17L4365.97,1379.86L4364.82,1378.66L4364.6,1347.98L4362.27,1348.68C4361.11,1348.98 4358.56,1349.48 4356.87,1349.78L4353.59,1350.38L4351.8,1344.97L4349.99,1339.46L4349.99,1336.15C4349.99,1334.34 4349.46,1329.93 4348.83,1326.42L4347.66,1320.1L4283.41,1320.3L4219.26,1320.61L4218.63,1328.63L4217.36,1330.03L4216.19,1331.33L4215.34,1337.05C4214.92,1340.16 4214.28,1344.47 4213.75,1346.67L4212.9,1350.69L4210.48,1351.79L4208.14,1352.89L4208.78,1353.39L4209.41,1354L4207.19,1354.7L4204.97,1355.3L4203.27,1354.3L4200.31,1355.8L4197.34,1357.2L4187.4,1357.2L4186.34,1358.11C4185.8,1358.61 4183.58,1359.51 4181.47,1360.21L4177.44,1361.41L4177.44,1383.17L4175.33,1388.39L4154.69,1387.79L4154.37,1292.83L4154.16,1197.77L4111.92,1197.77L4111.29,1173.21L4089.05,1172.61L4087.04,1170.7L4086.83,1165.89C4086.83,1163.28 4086.61,1160.57 4086.51,1159.97L4086.4,1158.67L4063.12,1158.67L4063.12,1160.47C4063.12,1160.73 4063.11,1161.62 4063.08,1163L4063.07,1163.08L4063.07,1163.65C4062.99,1167.28 4062.87,1173.53 4062.79,1180.23L4062.59,1198.28L4054.12,1198.28L4053.8,1279.39L4053.59,1360.51L4052.32,1361.92L4051.15,1363.32L4023.43,1362.72L4022.36,1334.04L4020.04,1332.64L4019.29,1327.62L4018.66,1322.61L4017.6,1322.31L4016.54,1321.91L4016.54,1314.29L4013.37,1311.88L4013.37,1306.17L4010.82,1300.95L4009.24,1301.25L4007.54,1301.55L4007.23,1304.06C4007.01,1305.46 4006.49,1307.07 4005.96,1307.57C4005.53,1308.17 4004.79,1310.48 4004.36,1312.78L4003.62,1317.1L4002.67,1317.7L4001.72,1318.2L4001.72,1323.21L4000.23,1325.92C3999.49,1327.42 3998.44,1330.53 3998.12,1332.74L3997.38,1336.85L3995.05,1338.05L3992.72,1339.15L3976.31,1339.36L3959.91,1339.66L3959.59,1344.87L3959.27,1349.98L3958,1350.89L3956.72,1351.69L3934.5,1350.69L3933.23,1343.07L3930.79,1340.76L3930.79,1334.64L3929.21,1331.74L3927.62,1328.93L3927.62,1322.31L3926.56,1321.91L3925.39,1321.61L3924.98,1318.6L3924.86,1317.73L3924.86,1317.72C3924.69,1316.37 3924.55,1315.22 3924.55,1314.89L3924.45,1314.09L3920.32,1314.09L3919.15,1312.18L3918.1,1310.18L3918.1,1087.08L3912.8,1087.08L3912.8,1061.01L3887.96,1061.01L3887.96,983.798L3881.04,983.798L3881.04,1061.01L3829.17,1061.01L3829.17,1087.08L3819.12,1087.08L3818.58,1220.84C3818.27,1295.04 3817.95,1355.8 3817.74,1356C3817.64,1356.1 3810.53,1356.2 3801.97,1356.2L3786.3,1356.2L3785.03,1355.4L3783.86,1354.7L3783.45,1351.69L3783.12,1348.78L3778.89,1345.97C3776.56,1344.47 3773.39,1342.96 3771.79,1342.66L3769.04,1342.06L3764.39,1337.25C3761.85,1334.64 3754.85,1327.02 3748.83,1320.3L3737.71,1308.07L3736.97,1308.27C3736.55,1308.47 3731.46,1313.29 3725.65,1319.1L3715.16,1329.63L3714.42,1331.93L3713.68,1334.14L3712.73,1334.14C3710.93,1334.14 3710.72,1332.34 3710.51,1312.58L3710.29,1292.53L3706.8,1287.42L3703.41,1282.2L3700.98,1280.6C3699.6,1279.69 3697.7,1278.99 3696.74,1278.99L3694.94,1278.99L3692.19,1282.1C3690.71,1283.81 3689.44,1285.81 3689.44,1286.51C3689.44,1287.21 3688.8,1288.52 3687.96,1289.22L3686.47,1290.62L3686.05,1310.98L3685.52,1331.23L3683.19,1333.44L3675.99,1326.02C3673.39,1323.43 3670.13,1320.08 3667.35,1317.23L3667.26,1317.13L3667.25,1317.12L3667.2,1317.08L3665.92,1315.76L3664.74,1314.56L3663.97,1313.77L3663.4,1313.18L3658,1307.67L3651.22,1314.59C3647.52,1318.3 3644.13,1322.11 3643.81,1323.01C3643.39,1323.91 3642.01,1325.52 3640.74,1326.62C3639.37,1327.72 3636.4,1330.83 3634.18,1333.64L3629.95,1338.55L3624.65,1341.86C3621.8,1343.67 3618.83,1345.17 3618.09,1345.17L3616.82,1345.17L3611.1,1350.79L3611.1,1368.93L3608.35,1373.85C3606.87,1376.56 3604.96,1379.46 3604.22,1380.27C3603.48,1381.07 3601.58,1384.18 3599.99,1387.08C3598.4,1389.89 3596.81,1392.3 3596.39,1392.3C3595.01,1392.3 3591.41,1387.99 3587.71,1382.27C3585.81,1379.26 3583.79,1376.56 3583.37,1376.15L3582.52,1375.65L3582.31,1309.98L3581.99,1244.4L3570.35,1243.4L3569.82,1233.29L3569.82,1213.3C3555.19,1208.49 3532.42,1205.39 3506.83,1205.39C3462.69,1205.39 3426.91,1225.95 3426.91,1225.95C3426.91,1225.95 3426.92,1226.2 3426.93,1226.33L3426.91,1226.35L3426.59,1317.6L3426.38,1408.84L3420.45,1409.04L3420.03,1408.24L3419.5,1407.44L3413.68,1406.84L3407.86,1406.13L3408.39,1405.33L3408.91,1404.63L3403.3,1403.93C3400.34,1403.53 3395.26,1402.53 3392.3,1401.72L3386.68,1400.22L3386.68,1369.14L3382.87,1365.63C3380.76,1363.72 3378.53,1362.22 3378,1362.22L3377.05,1362.22L3377.58,1361.41L3378.11,1360.51L3376.31,1358.11C3375.36,1356.8 3374.51,1355.1 3374.3,1354.4C3374.19,1353.59 3373.45,1352.29 3372.71,1351.39C3371.87,1350.38 3369.64,1346.78 3367.74,1343.17C3365.72,1339.56 3363.4,1335.85 3362.34,1334.84L3360.54,1332.94L3358.21,1336.65L3358.02,1336.98L3358.01,1336.99C3356.93,1338.85 3355.99,1340.48 3355.99,1340.76C3355.99,1341.06 3354.08,1344.07 3351.64,1347.38C3349.32,1350.79 3346.46,1355.2 3345.29,1357.1C3342.01,1362.82 3340.74,1364.62 3339.37,1365.53L3337.99,1366.33L3337.99,1389.79L3337.14,1390.79C3336.72,1391.4 3334.82,1392.9 3332.91,1394.2L3329.41,1396.51L3324.34,1395.31L3312.16,1384.18C3305.39,1378.06 3299.88,1373.35 3299.88,1373.75C3299.88,1374.15 3298.08,1372.85 3295.96,1370.84C3293.74,1368.84 3291.41,1367.23 3290.78,1367.23C3290.14,1367.23 3288.34,1368.43 3286.76,1369.94C3285.27,1371.34 3283.79,1372.34 3283.58,1372.14C3282.52,1370.84 3279.77,1364.72 3279.77,1363.42C3279.77,1362.72 3279.13,1360.61 3278.39,1358.91C3276.17,1353.89 3274.26,1348.88 3273.74,1346.17C3273.42,1344.77 3272.46,1341.96 3271.51,1339.96L3269.82,1336.15L3266.64,1335.64L3263.36,1335.04L3171.69,1336.05L3169.04,1335.04L3166.39,1334.14L3166.29,1322.91C3166.29,1316.69 3165.87,1301.65 3165.23,1289.52C3164.7,1277.39 3164.17,1254.73 3164.07,1239.09L3163.85,1210.71L3161.74,1210.31C3160.57,1210.01 3157.5,1209.71 3154.86,1209.61L3150.09,1209.31L3149.56,1201.79L3149.56,1195.37L3137.92,1195.37L3137.92,1209.4L3129.98,1209.91L3125.53,1213.92L3124.79,1261.75L3123.95,1309.58L3122.99,1310.68L3121.93,1311.88L3121.51,1351.09C3121.19,1372.64 3120.98,1390.79 3120.98,1391.3L3120.98,1392.3L3074.4,1392.3L3074.4,1346.58L3065.51,1341.76C3060.64,1339.15 3055.99,1336.35 3055.24,1335.55L3053.97,1334.04L3053.23,1326.82L3052.6,1319.6L3050.06,1315.19L3050.06,1310.38C3050.06,1307.77 3049.63,1303.96 3049,1302.06C3048.47,1300.15 3047.83,1295.74 3047.62,1292.23C3047.3,1288.72 3046.88,1285.61 3046.46,1285.31L3045.82,1284.61L3043.92,1286.31L3042.12,1288.12L3041.8,1300.35L3041.38,1312.58L3040.32,1313.89L3039.15,1315.09L3038.1,1334.24L3035.87,1335.64C3034.6,1336.35 3030.58,1338.45 3026.77,1340.36L3019.89,1343.87L3019.78,1358.51L3019.57,1373.25L3018.3,1376.46L2990.99,1375.65L2989.4,1374.35L2987.71,1373.05L2986.86,1368.93L2985.91,1364.72L2982.31,1364.12L2981.25,1366.63L2980.19,1369.24L2979.34,1369.24C2978.81,1369.24 2977.12,1368.13 2975.64,1366.83L2972.78,1364.32L2908.42,1363.72L2907.68,1363.12L2907.04,1362.42L2907.25,1311.28L2903.97,1306.07L2900.8,1300.95L2900.8,1295.94L2891.27,1286.31L2891.48,1260.64L2888.73,1258.14L2886.08,1255.53L2884.92,1258.34C2884.39,1259.84 2883.86,1261.65 2883.86,1262.45C2883.86,1263.25 2883.33,1264.15 2882.8,1264.45L2881.64,1265.15L2882.38,1276.29L2883.01,1287.52L2879.2,1290.92L2875.5,1294.33L2875.92,1295.04L2876.45,1295.84L2873.27,1298.25L2873.27,1304.06L2872.53,1304.06C2872,1304.06 2870.84,1305.46 2869.89,1307.17L2867.98,1310.28L2867.98,1350.18L2861.42,1361.21L2852.31,1361.21L2843.11,1361.11L2841.52,1359.91C2840.67,1359.21 2839.4,1357.81 2838.76,1356.7L2837.6,1354.7L2834.42,1354.1L2827.97,1360.01L2821.4,1365.83L2821.4,1386.08L2813.46,1386.78L2805.63,1387.49L2800.55,1386.68L2795.47,1385.78L2795.47,1340.06L2793.88,1339.15L2792.29,1338.15L2769.53,1338.15L2767.95,1334.94C2767.2,1333.14 2766.25,1330.43 2765.93,1329.03L2765.3,1326.42L2751.54,1313.18L2746.03,1310.38C2743.07,1308.87 2740.21,1307.67 2739.79,1307.77C2739.36,1307.87 2738.41,1307.37 2737.78,1306.57L2736.51,1305.06L2730.58,1305.06L2727.61,1303.56L2724.54,1302.06L2719.78,1302.06L2718.72,1299.65L2717.77,1297.14L2712.79,1296.44L2707.92,1295.74L2701.89,1296.34L2695.96,1296.94L2693.84,1299.55L2691.62,1302.06L2686.12,1302.06L2683.58,1305.06L2680.19,1305.06L2676.91,1305.16L2674.9,1306.57C2673.73,1307.37 2672.25,1308.07 2671.51,1308.07C2670.77,1308.07 2667.06,1310.18 2663.25,1312.68L2656.37,1317.2L2651.5,1322.41L2646.74,1327.62L2646.74,1332.14L2644.62,1332.14L2644.62,1335.85L2642.72,1337.45L2640.7,1339.15L2619.69,1339.15C2618.88,1344.9 2618.02,1350.62 2617.1,1356.33L2617.1,1360.81L2616.16,1361.99C2615.41,1366.49 2614.61,1370.96 2613.78,1375.43L2613.6,1383.27L2612.44,1384.08C2612.37,1384.13 2612.25,1384.19 2612.1,1384.26ZM1697.84,432.909C1241.53,432.909 871.063,785.877 871.063,1220.63C871.063,1655.39 1241.53,2008.36 1697.84,2008.36C2154.14,2008.36 2524.61,1655.39 2524.61,1220.63C2524.61,785.877 2154.14,432.909 1697.84,432.909ZM1690.52,1028.77L1718.08,1031.71C1718.08,1031.71 1714.07,1056.97 1709.27,1075.37C1693.32,1136.42 1626.72,1213.53 1568.11,1243.46C1561.2,1246.98 1537.63,1254.8 1537.63,1254.8L1530.2,1233.83C1530.2,1233.83 1547.4,1228.57 1558.79,1221.91C1617.33,1187.66 1674.16,1121.89 1686.08,1055.51C1687.15,1049.56 1690.52,1028.77 1690.52,1028.77ZM1343.3,1095.16C1359.81,1085.07 1375.29,1090.48 1380.26,1102.07C1385.62,1114.57 1379.26,1132.33 1360.93,1131.99C1339.94,1131.61 1330.3,1113.4 1343.3,1095.16ZM1908.97,1240.87C1908.97,1240.87 1899.05,1235.14 1900.76,1226.06C1904.51,1206.16 1910.23,1180.75 1909.68,1160.4C1909.4,1150.2 1922.65,1153.22 1922.65,1153.22C1924.77,1172.96 1919.18,1212.15 1908.97,1240.87ZM1532.63,1051.33C1553.66,1073.2 1550.29,1110.23 1526.48,1129.16C1497.1,1152.53 1453.71,1148.93 1437.78,1114.05C1425.72,1087.63 1437.21,1059.27 1459.28,1045.41C1481.59,1031.41 1514.65,1032.15 1532.63,1051.33ZM1599.32,927.995C1625.57,938.874 1638.37,968.931 1626.92,986.512C1612.13,1009.24 1590.58,1013.36 1567.51,1002.19C1551.93,994.641 1537.3,975.703 1538.52,958.673C1540.35,932.924 1572.58,916.916 1599.32,927.995ZM1875,1805.25L1523.79,1805.25C1514.81,1787.99 1494.37,1780.21 1456.14,1779.66C1456.14,1779.66 1582.94,1498.27 1635.65,1364.83C1669.76,1380.68 1703.87,1395.48 1737.69,1404.8L1737.84,1413.5L1716.94,1416.81C1735.41,1444.47 1764.31,1466.82 1800.53,1464.4C1802.14,1462.95 1749.58,1337.43 1744.71,1326.15C1741.49,1318.68 1758.04,1312.39 1761.04,1320.57L1943.07,1779.8C1911.13,1779.9 1886.43,1785.43 1875,1805.25ZM1849.24,1706.96L1826.54,1649.69C1784.73,1652.38 1741.72,1653.78 1697.84,1653.78C1657.63,1653.78 1618.16,1652.6 1579.66,1650.34C1570.73,1670.62 1562.2,1689.92 1554.38,1707.53C1600.89,1710.8 1648.84,1712.51 1697.84,1712.51C1749.63,1712.51 1800.26,1710.6 1849.24,1706.96ZM2110.25,1798.26C2097.8,1785.23 2077.36,1780.01 2052.06,1779.42C2052.06,1779.42 1899.97,1464.66 1900.4,1462.21C1934.96,1460.09 1981.31,1444.6 2007.92,1414.09C2007.92,1414.09 2015.02,1418.86 2021.19,1420.17C2013.82,1436.48 2009.61,1449.7 2027.33,1461.64C2052.03,1478.28 2073.57,1462.19 2093.23,1433.43C2110.71,1445.84 2125.56,1432.36 2129.89,1424.39C2136.58,1412.08 2136.18,1396.24 2121.86,1386C2130.76,1367.23 2143.71,1348.04 2123.43,1332.75C2105.43,1319.17 2090.18,1316.53 2074.66,1333.84C2066.66,1329.15 2058.21,1323.08 2058.21,1323.08C2079.06,1280.1 2066.23,1232.76 2051.11,1200.23C2029.16,1153 1969,1102.85 1919.34,1101.8C1919.34,1101.8 1921.41,1117.03 1921.29,1125.82C1901.09,1123.83 1909.57,1100.14 1896.9,1090.44C1881.76,1078.85 1855.2,1061.69 1830.75,1043.93L1856.23,994.016C1883.59,1006.78 1893.35,999.496 1901.37,985.171C1907.43,974.356 1902.72,963.046 1879.85,950.453C1870.65,945.39 1876.62,935.06 1879.73,929.027L1896.15,935.822C1913.35,943.755 1928.08,916.674 1912.04,908.994L1861.93,884.354C1843.36,877.327 1832.87,899.44 1847.29,908.621L1860.6,916.916C1856.83,929.119 1850.87,935.136 1842.74,931.309C1825.41,923.156 1810.33,912.807 1797.41,930.173C1781.99,950.885 1794.88,960.039 1819.12,970.937L1791.22,1024.02C1766.43,1009.86 1752.88,998.323 1719.49,989.069C1712.31,987.079 1689.13,987.557 1689.13,987.557C1689.13,987.557 1686.88,985.434 1685.47,979.852C1683.89,973.628 1673.69,952.246 1669.41,944.253C1651.07,910.023 1614.22,876.184 1577.59,860.162C1586.8,837.888 1585,823.592 1559.85,813.982C1528.07,801.839 1513.45,805.417 1500.83,838.13C1456.02,830.753 1404.01,846.631 1366.4,870.418C1358.69,875.299 1322.88,904.285 1322.88,904.285C1306.88,898.143 1286.7,892.569 1269.82,919.536C1252.86,946.637 1264.05,965.611 1282.55,973.206C1256.98,1048.63 1282.24,1129.57 1341.74,1183.41C1346.75,1187.95 1367.45,1203.35 1367.45,1203.35C1360.96,1211.54 1352.98,1240.78 1391.02,1256.72C1427.58,1272.05 1440.75,1246.25 1445.37,1234.47L1484.66,1238.67C1483.39,1251.9 1493.63,1268.4 1501.32,1279.24C1511.28,1293.3 1519.14,1305.19 1534.77,1313.47C1545.33,1319.07 1583.46,1338.65 1583.46,1338.65L1360.55,1779.25C1328.31,1779.21 1311.82,1790.09 1303.68,1805.25L1296.38,1805.25C1210.71,1751.71 1137.5,1681.54 1081.82,1599.58C1151.91,1633.03 1241.04,1660.79 1343.1,1680.41L1370.67,1625.9C1261.41,1606.12 1167.1,1576.67 1095.8,1540.35C1062.49,1523.38 1034.2,1495.88 1012.51,1469.53C1003.15,1446.17 995.07,1422.21 988.347,1397.73C972.813,1341.17 964.542,1281.81 964.542,1220.63C964.542,835.033 1293.12,521.973 1697.84,521.973C2102.55,521.973 2431.13,835.033 2431.13,1220.63C2431.13,1281.81 2422.86,1341.17 2407.32,1397.73C2400.6,1422.21 2392.52,1446.17 2383.16,1469.53C2361.47,1495.88 2333.18,1523.38 2299.87,1540.35C2232.58,1574.63 2144.78,1602.79 2043.26,1622.48C2052.44,1641.56 2061.39,1660.13 2069.54,1677.05C2164.52,1657.67 2247.67,1631.17 2313.85,1599.58C2260.55,1678.02 2191.2,1745.66 2110.25,1798.26ZM2140.64,1068.97C2134.5,1063.08 2134.21,1041.3 2129.82,1038.03C2126.28,1035.39 2124.49,1039.1 2123.38,1041.8C2120.56,1048.61 2119.09,1061.08 2115.11,1066.57C2109.42,1074.42 2087.76,1075.17 2086.3,1080C2084,1087.62 2101.69,1088.99 2106.98,1091.1C2123.53,1097.69 2116.53,1115.54 2126.28,1126.89C2127.36,1127.26 2128.31,1127.08 2129.31,1126.58C2135.27,1123.62 2132.91,1097.86 2144.41,1092.14C2149.19,1089.76 2168.15,1087.08 2168.65,1081.45C2168.76,1080.2 2168.72,1079.87 2167.96,1078.85C2165.07,1074.95 2146.02,1074.13 2140.64,1068.97ZM1545.59,618.444C1543.94,616.927 1540.24,615.897 1537.99,616.427C1526.06,619.251 1520.94,663.171 1511.21,671.945C1501.84,680.385 1460.5,685.578 1459.23,696.237C1457.33,712.187 1500.45,713.084 1511.25,723.969C1522.15,734.949 1526.44,772.428 1533.44,777.447C1536.48,779.623 1543.68,780.198 1546.21,776.769C1554.06,766.153 1552.8,735.615 1563.91,723.965C1574.78,712.573 1617.97,713.216 1617.99,697.982C1618.01,686.222 1583.66,682.471 1573.38,677.365C1550.95,666.23 1556.91,628.853 1545.59,618.444ZM1962.28,869.638C1966.71,873.843 1973.59,872.197 1976.7,867.144C1985.91,852.133 1983.05,818.655 1999.5,804.359C2013.09,792.557 2059.43,794.442 2059.62,777.103C2059.72,767.592 2020.23,762.936 2010.96,759.439C1979.37,747.531 1988.83,714.398 1976.53,691.541C1972.95,684.902 1965.3,685.083 1959.93,689.773C1953.82,706.892 1952.49,739.621 1939.26,752.357C1926.27,764.874 1884.45,765.521 1879.72,772.947C1877.94,775.745 1878.24,780.816 1879.73,783.769C1884.24,792.671 1931.81,796.092 1942.99,808.015C1956.26,822.171 1955.47,863.154 1962.28,869.638ZM2327.41,1279.52C2314.79,1267.96 2314.2,1225.23 2305.18,1218.82C2297.89,1213.64 2294.21,1220.91 2291.93,1226.2C2286.14,1239.57 2283.11,1264.04 2274.94,1274.81C2263.24,1290.21 2218.71,1291.7 2215.72,1301.17C2211,1316.12 2247.35,1318.81 2258.23,1322.95C2292.24,1335.89 2277.86,1370.91 2297.9,1393.18C2300.12,1393.9 2302.07,1393.54 2304.13,1392.57C2316.37,1386.77 2311.53,1336.22 2335.16,1324.99C2344.99,1320.32 2383.96,1315.05 2384.99,1304.02C2385.21,1301.57 2385.12,1300.91 2383.56,1298.9C2377.62,1291.26 2338.48,1289.65 2327.41,1279.52ZM1141.89,1037.15C1140.3,1037.28 1138.15,1038.48 1136.94,1039.52C1127.35,1047.82 1127.72,1087.22 1115.25,1099.79C1102.9,1112.23 1063.29,1114.45 1057.8,1122.36C1053.97,1127.87 1054.9,1131.96 1060.86,1135.26C1077.33,1144.36 1113.92,1142.65 1122.35,1162.99C1126.44,1172.88 1131.54,1210.45 1137.63,1214.95C1142.54,1218.58 1147.49,1217.3 1150.51,1212.5C1163.89,1191.3 1154.12,1160.05 1184.64,1147.91C1195.25,1143.7 1236.8,1139.37 1228.43,1123.07C1224.37,1115.19 1183.94,1112.61 1171.7,1099.79C1159.56,1087.06 1159.05,1047.36 1148.12,1039.51C1146.35,1038.23 1144.21,1036.95 1141.89,1037.15ZM1342.64,1353.5C1341.54,1353.6 1340.05,1354.47 1339.21,1355.23C1332.54,1361.31 1332.8,1390.16 1324.13,1399.36C1315.55,1408.47 1288.02,1410.09 1284.2,1415.89C1281.54,1419.92 1282.18,1422.92 1286.33,1425.33C1297.77,1431.99 1323.21,1430.75 1329.06,1445.64C1331.91,1452.88 1335.45,1480.39 1339.69,1483.68C1343.1,1486.34 1346.54,1485.4 1348.64,1481.89C1357.94,1466.37 1351.14,1443.48 1372.36,1434.6C1379.74,1431.51 1408.61,1428.34 1402.79,1416.41C1399.98,1410.63 1371.87,1408.75 1363.37,1399.36C1354.93,1390.04 1354.57,1360.98 1346.98,1355.22C1345.75,1354.29 1344.26,1353.35 1342.64,1353.5ZM1784.1,1213.1C1797.49,1209.95 1814.28,1219.55 1817.92,1233.64C1822.2,1250.17 1806.57,1267.05 1792.73,1268.8C1777.12,1270.77 1763.56,1260.78 1760.83,1245.91C1757.9,1229.99 1763.38,1217.97 1784.1,1213.1ZM1425.76,914.154C1439.44,927.168 1430.41,949.352 1414.37,966.201C1397.22,984.208 1372.05,996.122 1358.01,984.24C1342.86,971.424 1353.47,945.81 1371.34,927.791C1388.18,910.805 1411.49,900.567 1425.76,914.154ZM1900.42,1265.24C1890.69,1296.63 1871.94,1324.8 1845.83,1344.87C1837.07,1336.55 1839.63,1329.52 1846.44,1323.56C1866.12,1306.34 1873.45,1295.11 1883.38,1270.57C1886.42,1263.08 1894.44,1262.29 1900.42,1265.24Z" style="fill:rgb(0,89,138);"/>
            </g>
        </g>
    </g>
</svg>
